M48
; DRILL file KiCad 10.0.1 date 2026-09-30T16:23:03
; FORMAT={-:-/ absolute / metric / decimal}
; #@! TF.CreationDate,2026-09-30T16:23:03+01:00
; #@! TF.GenerationSoftware,Kicad,Pcbnew,10.0.1
; #@! TF.FileFunction,Plated,1,2,PTH
FMAT,2
METRIC
; #@! TA.AperFunction,Plated,PTH,ViaDrill
T1C0.300
; #@! TA.AperFunction,Plated,PTH,ComponentDrill
T2C0.750
; #@! TA.AperFunction,Plated,PTH,ComponentDrill
T3C0.800
; #@! TA.AperFunction,Plated,PTH,ComponentDrill
T4C1.000
; #@! TA.AperFunction,Plated,PTH,ComponentDrill
T5C1.200
%
G90
G05
T1
X129.112Y-106.388
X151.5Y-106.388
X151.5Y-108.928
T2
X160.5Y-127.0
X162.5Y-127.0
T3
X117.38Y-109.0
X125.0Y-109.0
X131.1Y-123.5
X138.72Y-123.5
X140.88Y-123.5
X148.5Y-123.5
T4
X116.75Y-79.75
X116.75Y-84.25
X123.25Y-79.75
X123.25Y-84.25
X126.0Y-89.0
X126.0Y-91.54
X126.0Y-94.08
X126.0Y-96.62
X136.19Y-127.4
X138.73Y-127.4
X141.27Y-127.4
X143.81Y-127.4
X160.05Y-80.0
X160.05Y-84.5
X160.05Y-88.5
X160.05Y-93.0
X166.55Y-80.0
X166.55Y-84.5
X166.55Y-88.5
X166.55Y-93.0
T5
X138.717Y-102.827
X138.717Y-107.907
X141.257Y-102.827
X141.257Y-107.907
T4
G00X138.209Y-116.75
M15
G01X138.209Y-117.25
M16
G05
G00X140.749Y-116.75
M15
G01X140.749Y-117.25
M16
G05
M30
