%TF.GenerationSoftware,KiCad,Pcbnew,10.0.1*%
%TF.CreationDate,2026-09-30T16:23:07+01:00*%
%TF.ProjectId,Temperature Monitor,54656d70-6572-4617-9475-7265204d6f6e,rev?*%
%TF.SameCoordinates,Original*%
%TF.FileFunction,Copper,L1,Top*%
%TF.FilePolarity,Positive*%
%FSLAX46Y46*%
G04 Gerber Fmt 4.6, Leading zero omitted, Abs format (unit mm)*
G04 Created by KiCad (PCBNEW 10.0.1) date 2026-09-30 16:23:07*
%MOMM*%
%LPD*%
G01*
G04 APERTURE LIST*
G04 Aperture macros list*
%AMRoundRect*
0 Rectangle with rounded corners*
0 $1 Rounding radius*
0 $2 $3 $4 $5 $6 $7 $8 $9 X,Y pos of 4 corners*
0 Add a 4 corners polygon primitive as box body*
4,1,4,$2,$3,$4,$5,$6,$7,$8,$9,$2,$3,0*
0 Add four circle primitives for the rounded corners*
1,1,$1+$1,$2,$3*
1,1,$1+$1,$4,$5*
1,1,$1+$1,$6,$7*
1,1,$1+$1,$8,$9*
0 Add four rect primitives between the rounded corners*
20,1,$1+$1,$2,$3,$4,$5,0*
20,1,$1+$1,$4,$5,$6,$7,0*
20,1,$1+$1,$6,$7,$8,$9,0*
20,1,$1+$1,$8,$9,$2,$3,0*%
G04 Aperture macros list end*
%TA.AperFunction,ComponentPad*%
%ADD10R,1.700000X1.700000*%
%TD*%
%TA.AperFunction,ComponentPad*%
%ADD11C,1.700000*%
%TD*%
%TA.AperFunction,ComponentPad*%
%ADD12C,1.600000*%
%TD*%
%TA.AperFunction,ComponentPad*%
%ADD13RoundRect,0.250000X0.350000X0.625000X-0.350000X0.625000X-0.350000X-0.625000X0.350000X-0.625000X0*%
%TD*%
%TA.AperFunction,ComponentPad*%
%ADD14O,1.200000X1.750000*%
%TD*%
%TA.AperFunction,SMDPad,CuDef*%
%ADD15RoundRect,0.500000X-0.875000X-0.500000X0.875000X-0.500000X0.875000X0.500000X-0.875000X0.500000X0*%
%TD*%
%TA.AperFunction,SMDPad,CuDef*%
%ADD16C,1.700000*%
%TD*%
%TA.AperFunction,ComponentPad*%
%ADD17RoundRect,0.275000X-0.275000X0.975000X-0.275000X-0.975000X0.275000X-0.975000X0.275000X0.975000X0*%
%TD*%
%TA.AperFunction,ViaPad*%
%ADD18C,0.600000*%
%TD*%
%TA.AperFunction,Conductor*%
%ADD19C,0.400000*%
%TD*%
%TA.AperFunction,Conductor*%
%ADD20C,1.000000*%
%TD*%
G04 APERTURE END LIST*
D10*
%TO.P,J3,1,Pin_1_1*%
%TO.N,/DISP_PWR*%
X143810000Y-127400000D03*
D11*
%TO.P,J3,2,Pin_2_2*%
%TO.N,GND*%
X141270000Y-127400000D03*
%TO.P,J3,3,Pin_3_3*%
%TO.N,/SCL*%
X138730000Y-127400000D03*
%TO.P,J3,4,Pin_4_4*%
%TO.N,/SDA*%
X136190000Y-127400000D03*
%TD*%
D12*
%TO.P,R2,1*%
%TO.N,Net-(U2-D2)*%
X125000000Y-109000000D03*
%TO.P,R2,2*%
%TO.N,GND*%
X117380000Y-109000000D03*
%TD*%
D13*
%TO.P,J1,1,Pin_1_1*%
%TO.N,/VBAT*%
X162500000Y-127000000D03*
D14*
%TO.P,J1,2,Pin_2_2*%
%TO.N,GND*%
X160500000Y-127000000D03*
%TD*%
D11*
%TO.P,SW2,1,1_1*%
%TO.N,GND*%
X160050000Y-80000000D03*
X166550000Y-80000000D03*
%TO.P,SW2,2,2_2*%
%TO.N,Net-(U2-MTMS)*%
X160050000Y-84500000D03*
X166550000Y-84500000D03*
%TD*%
D12*
%TO.P,R3,1*%
%TO.N,/SENS_PWR*%
X148500000Y-123500000D03*
%TO.P,R3,2*%
%TO.N,/SCL*%
X140880000Y-123500000D03*
%TD*%
D11*
%TO.P,SW3,1,1_1*%
%TO.N,GND*%
X116750000Y-79750000D03*
X123250000Y-79750000D03*
%TO.P,SW3,2,2_2*%
%TO.N,Net-(U2-D0)*%
X116750000Y-84250000D03*
X123250000Y-84250000D03*
%TD*%
D15*
%TO.P,U2,1,D0_1*%
%TO.N,Net-(U2-D0)*%
X131935000Y-103848300D03*
%TO.P,U2,2,D1_2*%
%TO.N,/DISP_PWR*%
X131935000Y-106388300D03*
%TO.P,U2,3,D2_3*%
%TO.N,Net-(U2-D2)*%
X131935000Y-108928300D03*
%TO.P,U2,4,D3_4*%
%TO.N,unconnected-(U2-D3-Pad4)*%
X131935000Y-111468300D03*
%TO.P,U2,5,D4_5*%
%TO.N,unconnected-(U2-D4-Pad5)*%
X131935000Y-114008300D03*
%TO.P,U2,6,D5_6*%
%TO.N,unconnected-(U2-D5-Pad6)*%
X131935000Y-116548300D03*
%TO.P,U2,7,D6_7*%
%TO.N,unconnected-(U2-D6-Pad7)*%
X131935000Y-119088300D03*
%TO.P,U2,8,D7_8*%
%TO.N,unconnected-(U2-D7-Pad8)*%
X148100000Y-119088300D03*
%TO.P,U2,9,D8_9*%
%TO.N,unconnected-(U2-D8-Pad9)*%
X148100000Y-116548300D03*
%TO.P,U2,10,D9_10*%
%TO.N,unconnected-(U2-D9-Pad10)*%
X148100000Y-114008300D03*
%TO.P,U2,11,D10_11*%
%TO.N,unconnected-(U2-D10-Pad11)*%
X148100000Y-111468300D03*
%TO.P,U2,12,3V3_OUT_12*%
%TO.N,/SENS_PWR*%
X148100000Y-108928300D03*
%TO.P,U2,13,GND_13*%
%TO.N,GND*%
X148100000Y-106388300D03*
%TO.P,U2,14,VBUS_14*%
%TO.N,unconnected-(U2-VBUS-Pad14)*%
X148100000Y-103848300D03*
D11*
%TO.P,U2,15,MTDI_15*%
%TO.N,Net-(U2-MTDI)*%
X138716600Y-102826800D03*
%TO.P,U2,16,MTDO_16*%
%TO.N,/SCL*%
X141256600Y-102826800D03*
D16*
%TO.P,U2,17,EN_17*%
%TO.N,unconnected-(U2-EN-Pad17)*%
X138716600Y-105366800D03*
%TO.P,U2,18,GND_18*%
%TO.N,unconnected-(U2-GND-Pad18)*%
X141256600Y-105366800D03*
D11*
%TO.P,U2,19,MTMS_19*%
%TO.N,Net-(U2-MTMS)*%
X138716600Y-107906800D03*
%TO.P,U2,20,MTCK_20*%
%TO.N,/SDA*%
X141256600Y-107906800D03*
D16*
%TO.P,U2,21,BOOT_21*%
%TO.N,unconnected-(U2-BOOT-Pad21)*%
X138716600Y-110446800D03*
%TO.P,U2,22,3V3_OUT_22*%
%TO.N,unconnected-(U2-3V3_OUT-Pad22)*%
X141164000Y-110390000D03*
D17*
%TO.P,U2,23,VBAT_23*%
%TO.N,/VBAT*%
X138208600Y-117000000D03*
%TO.P,U2,24,GND_24*%
%TO.N,GND*%
X140748600Y-117000000D03*
%TD*%
D11*
%TO.P,SW1,1,1_1*%
%TO.N,GND*%
X160050000Y-88500000D03*
X166550000Y-88500000D03*
%TO.P,SW1,2,2_2*%
%TO.N,Net-(U2-MTDI)*%
X160050000Y-93000000D03*
X166550000Y-93000000D03*
%TD*%
D10*
%TO.P,J2,1,Pin_1_1*%
%TO.N,/SENS_PWR*%
X126000000Y-89000000D03*
D11*
%TO.P,J2,2,Pin_2_2*%
%TO.N,GND*%
X126000000Y-91540000D03*
%TO.P,J2,3,Pin_3_3*%
%TO.N,/SCL*%
X126000000Y-94080000D03*
%TO.P,J2,4,Pin_4_4*%
%TO.N,/SDA*%
X126000000Y-96620000D03*
%TD*%
D12*
%TO.P,R1,1*%
%TO.N,Net-(U2-D2)*%
X131100000Y-123500000D03*
%TO.P,R1,2*%
%TO.N,/VBAT*%
X138720000Y-123500000D03*
%TD*%
D18*
%TO.N,/DISP_PWR*%
X129111700Y-106388300D03*
%TO.N,/SENS_PWR*%
X151500000Y-108928300D03*
%TO.N,GND*%
X151500000Y-106388300D03*
%TD*%
%TO.N,/DISP_PWR*%
D19*
X131935000Y-106388300D02*
X129111700Y-106388300D01*
%TO.N,/SENS_PWR*%
X148100000Y-108928300D02*
X151500000Y-108928300D01*
%TO.N,/DISP_PWR*%
X132050064Y-106388300D02*
X131819936Y-106388300D01*
%TO.N,GND*%
D20*
X151500000Y-106388300D02*
X148100000Y-106388300D01*
%TO.N,/SCL*%
X115500000Y-119500000D02*
X115500000Y-104580000D01*
X144500000Y-106070200D02*
X141256600Y-102826800D01*
X138730000Y-127400000D02*
X136130000Y-130000000D01*
X144500000Y-112500000D02*
X144500000Y-106070200D01*
X136130000Y-130000000D02*
X126000000Y-130000000D01*
X136000000Y-115000000D02*
X137000000Y-114000000D01*
X143000000Y-114000000D02*
X144500000Y-112500000D01*
X126000000Y-130000000D02*
X115500000Y-119500000D01*
X115500000Y-104580000D02*
X126000000Y-94080000D01*
X137000000Y-114000000D02*
X143000000Y-114000000D01*
X138045000Y-126335000D02*
X140880000Y-123500000D01*
X137665000Y-126335000D02*
X138045000Y-126335000D01*
X136000000Y-124670000D02*
X136000000Y-115000000D01*
X138730000Y-127400000D02*
X136000000Y-124670000D01*
X138730000Y-127400000D02*
X137665000Y-126335000D01*
%TO.N,/SDA*%
X142000000Y-112500000D02*
X143000000Y-111500000D01*
X136500000Y-112500000D02*
X142000000Y-112500000D01*
X122000000Y-111000000D02*
X122000000Y-100500000D01*
X134300000Y-121000000D02*
X134300000Y-127700000D01*
X133400000Y-128600000D02*
X127483705Y-128600000D01*
X134300000Y-125510000D02*
X134300000Y-114700000D01*
X127483705Y-128600000D02*
X116700000Y-117816295D01*
X134300000Y-114700000D02*
X136500000Y-112500000D01*
X122000000Y-100500000D02*
X125880000Y-96620000D01*
X143000000Y-111500000D02*
X143000000Y-109650200D01*
X116700000Y-116300000D02*
X122000000Y-111000000D01*
X125880000Y-96620000D02*
X126000000Y-96620000D01*
X134300000Y-127700000D02*
X133400000Y-128600000D01*
X136190000Y-127400000D02*
X134300000Y-125510000D01*
X143000000Y-109650200D02*
X141256600Y-107906800D01*
X116700000Y-117816295D02*
X116700000Y-116300000D01*
%TO.N,Net-(U2-D2)*%
D19*
X131100000Y-123500000D02*
X128500000Y-120900000D01*
X128500000Y-111500000D02*
X128500000Y-110500000D01*
X128500000Y-110500000D02*
X130071700Y-108928300D01*
X125500000Y-109500000D02*
X126500000Y-109500000D01*
X126500000Y-109500000D02*
X128500000Y-111500000D01*
X130071700Y-108928300D02*
X131935000Y-108928300D01*
X125000000Y-109000000D02*
X125500000Y-109500000D01*
X128500000Y-120900000D02*
X128500000Y-111500000D01*
%TO.N,/VBAT*%
D20*
X150708600Y-129500000D02*
X160000000Y-129500000D01*
X160000000Y-129500000D02*
X162500000Y-127000000D01*
X144604300Y-123395700D02*
X150708600Y-129500000D01*
%TO.N,Net-(U2-MTMS)*%
D19*
X138716600Y-107906800D02*
X137000000Y-106190200D01*
X148200000Y-100289949D02*
X148200000Y-91300000D01*
X151000000Y-88500000D02*
X156050000Y-88500000D01*
X137000000Y-102000000D02*
X138023200Y-100976800D01*
X147789949Y-100700000D02*
X148200000Y-100289949D01*
X156050000Y-88500000D02*
X160050000Y-84500000D01*
X137000000Y-106190200D02*
X137000000Y-102000000D01*
X138523200Y-100976800D02*
X138800000Y-100700000D01*
X138023200Y-100976800D02*
X138523200Y-100976800D01*
X148200000Y-91300000D02*
X151000000Y-88500000D01*
X138800000Y-100700000D02*
X147789949Y-100700000D01*
%TO.N,Net-(U2-D0)*%
X131400000Y-91197919D02*
X124452081Y-84250000D01*
X131935000Y-103848300D02*
X131400000Y-103313300D01*
X124452081Y-84250000D02*
X123250000Y-84250000D01*
X131400000Y-103313300D02*
X131400000Y-91197919D01*
%TO.N,Net-(U2-MTDI)*%
X148800000Y-93000000D02*
X160050000Y-93000000D01*
X148800000Y-100538477D02*
X148800000Y-93000000D01*
X148038477Y-101300000D02*
X148800000Y-100538477D01*
X138716600Y-102826800D02*
X140243400Y-101300000D01*
X140243400Y-101300000D02*
X148038477Y-101300000D01*
%TO.N,/SENS_PWR*%
X149475000Y-108928300D02*
X148100000Y-108928300D01*
X149875000Y-122125000D02*
X149875000Y-109328300D01*
X149875000Y-109328300D02*
X149475000Y-108928300D01*
X148500000Y-123500000D02*
X149875000Y-122125000D01*
%TO.N,/VBAT*%
D20*
X138208600Y-117000000D02*
X138208600Y-118208600D01*
X138208600Y-118208600D02*
X143395700Y-123395700D01*
X143395700Y-123395700D02*
X144604300Y-123395700D01*
D19*
X141110000Y-121110000D02*
X143395700Y-123395700D01*
X138720000Y-123500000D02*
X141110000Y-121110000D01*
%TD*%
M02*
