%TF.GenerationSoftware,KiCad,Pcbnew,10.0.1*%
%TF.CreationDate,2026-09-09T16:51:19+01:00*%
%TF.ProjectId,Temperature Monitor,54656d70-6572-4617-9475-7265204d6f6e,rev?*%
%TF.SameCoordinates,Original*%
%TF.FileFunction,Legend,Top*%
%TF.FilePolarity,Positive*%
%FSLAX46Y46*%
G04 Gerber Fmt 4.6, Leading zero omitted, Abs format (unit mm)*
G04 Created by KiCad (PCBNEW 10.0.1) date 2026-09-09 16:51:19*
%MOMM*%
%LPD*%
G01*
G04 APERTURE LIST*
%ADD10C,0.100000*%
%ADD11C,0.106680*%
%ADD12C,0.150000*%
%ADD13C,0.504000*%
%ADD14C,0.127000*%
%ADD15C,0.120000*%
G04 APERTURE END LIST*
D10*
X126350000Y-101100000D02*
X153650000Y-101100000D01*
X153650000Y-128900000D01*
X126350000Y-128900000D01*
X126350000Y-101100000D01*
X128250000Y-103250000D02*
X151750000Y-103250000D01*
X151750000Y-126750000D01*
X128250000Y-126750000D01*
X128250000Y-103250000D01*
D11*
X138468450Y-87780391D02*
X138468450Y-88413698D01*
X138468450Y-88413698D02*
X138505704Y-88488204D01*
X138505704Y-88488204D02*
X138542957Y-88525458D01*
X138542957Y-88525458D02*
X138617464Y-88562711D01*
X138617464Y-88562711D02*
X138766477Y-88562711D01*
X138766477Y-88562711D02*
X138840984Y-88525458D01*
X138840984Y-88525458D02*
X138878237Y-88488204D01*
X138878237Y-88488204D02*
X138915490Y-88413698D01*
X138915490Y-88413698D02*
X138915490Y-87780391D01*
X139250770Y-87854898D02*
X139288023Y-87817644D01*
X139288023Y-87817644D02*
X139362530Y-87780391D01*
X139362530Y-87780391D02*
X139548797Y-87780391D01*
X139548797Y-87780391D02*
X139623303Y-87817644D01*
X139623303Y-87817644D02*
X139660557Y-87854898D01*
X139660557Y-87854898D02*
X139697810Y-87929404D01*
X139697810Y-87929404D02*
X139697810Y-88003911D01*
X139697810Y-88003911D02*
X139660557Y-88115671D01*
X139660557Y-88115671D02*
X139213517Y-88562711D01*
X139213517Y-88562711D02*
X139697810Y-88562711D01*
D12*
X146034819Y-127733333D02*
X146749104Y-127733333D01*
X146749104Y-127733333D02*
X146891961Y-127780952D01*
X146891961Y-127780952D02*
X146987200Y-127876190D01*
X146987200Y-127876190D02*
X147034819Y-128019047D01*
X147034819Y-128019047D02*
X147034819Y-128114285D01*
X146034819Y-127352380D02*
X146034819Y-126733333D01*
X146034819Y-126733333D02*
X146415771Y-127066666D01*
X146415771Y-127066666D02*
X146415771Y-126923809D01*
X146415771Y-126923809D02*
X146463390Y-126828571D01*
X146463390Y-126828571D02*
X146511009Y-126780952D01*
X146511009Y-126780952D02*
X146606247Y-126733333D01*
X146606247Y-126733333D02*
X146844342Y-126733333D01*
X146844342Y-126733333D02*
X146939580Y-126780952D01*
X146939580Y-126780952D02*
X146987200Y-126828571D01*
X146987200Y-126828571D02*
X147034819Y-126923809D01*
X147034819Y-126923809D02*
X147034819Y-127209523D01*
X147034819Y-127209523D02*
X146987200Y-127304761D01*
X146987200Y-127304761D02*
X146939580Y-127352380D01*
X121666666Y-91644819D02*
X121666666Y-92359104D01*
X121666666Y-92359104D02*
X121619047Y-92501961D01*
X121619047Y-92501961D02*
X121523809Y-92597200D01*
X121523809Y-92597200D02*
X121380952Y-92644819D01*
X121380952Y-92644819D02*
X121285714Y-92644819D01*
X122095238Y-91740057D02*
X122142857Y-91692438D01*
X122142857Y-91692438D02*
X122238095Y-91644819D01*
X122238095Y-91644819D02*
X122476190Y-91644819D01*
X122476190Y-91644819D02*
X122571428Y-91692438D01*
X122571428Y-91692438D02*
X122619047Y-91740057D01*
X122619047Y-91740057D02*
X122666666Y-91835295D01*
X122666666Y-91835295D02*
X122666666Y-91930533D01*
X122666666Y-91930533D02*
X122619047Y-92073390D01*
X122619047Y-92073390D02*
X122047619Y-92644819D01*
X122047619Y-92644819D02*
X122666666Y-92644819D01*
X159666666Y-115954819D02*
X159666666Y-116669104D01*
X159666666Y-116669104D02*
X159619047Y-116811961D01*
X159619047Y-116811961D02*
X159523809Y-116907200D01*
X159523809Y-116907200D02*
X159380952Y-116954819D01*
X159380952Y-116954819D02*
X159285714Y-116954819D01*
X160666666Y-116954819D02*
X160095238Y-116954819D01*
X160380952Y-116954819D02*
X160380952Y-115954819D01*
X160380952Y-115954819D02*
X160285714Y-116097676D01*
X160285714Y-116097676D02*
X160190476Y-116192914D01*
X160190476Y-116192914D02*
X160095238Y-116240533D01*
%TO.C,U2*%
D13*
X132416000Y-90096000D02*
G75*
G02*
X131912000Y-90096000I-252000J0D01*
G01*
X131912000Y-90096000D02*
G75*
G02*
X132416000Y-90096000I252000J0D01*
G01*
X131142000Y-89379000D02*
G75*
G02*
X130638000Y-89379000I-252000J0D01*
G01*
X130638000Y-89379000D02*
G75*
G02*
X131142000Y-89379000I252000J0D01*
G01*
D10*
X148880000Y-108013000D02*
G75*
G02*
X146975000Y-109918000I-1905000J0D01*
G01*
X146975000Y-88963000D02*
G75*
G02*
X148880000Y-90868000I0J-1905000D01*
G01*
D14*
X143994000Y-87453000D02*
G75*
G02*
X144494000Y-87953000I0J-500000D01*
G01*
X135498728Y-87952728D02*
G75*
G02*
X135998728Y-87452998I500022J-292D01*
G01*
D10*
X133005000Y-109918000D02*
G75*
G02*
X131100000Y-108013000I0J1905000D01*
G01*
X131100000Y-90864000D02*
G75*
G02*
X133005000Y-88959000I1905001J-1D01*
G01*
X148880000Y-108013000D02*
X148880000Y-90868000D01*
X146975000Y-88963000D02*
X133005000Y-88963000D01*
D14*
X144494000Y-87953000D02*
X144494000Y-88963000D01*
X135998728Y-87453000D02*
X143994000Y-87453000D01*
X135495000Y-88963000D02*
X135498728Y-87952728D01*
D10*
X133005000Y-109918000D02*
X146975000Y-109918000D01*
X131100000Y-108013000D02*
X131100000Y-90868000D01*
%TO.C,J3*%
D15*
X142540000Y-128730000D02*
X134860000Y-128730000D01*
X145140000Y-128730000D02*
X143810000Y-128730000D01*
X145140000Y-127400000D02*
X145140000Y-128730000D01*
X134860000Y-126070000D02*
X134860000Y-128730000D01*
X142540000Y-126070000D02*
X142540000Y-128730000D01*
X142540000Y-126070000D02*
X134860000Y-126070000D01*
%TO.C,J2*%
X120670000Y-96230000D02*
X120670000Y-103910000D01*
X120670000Y-96230000D02*
X123330000Y-96230000D01*
X120670000Y-103910000D02*
X123330000Y-103910000D01*
X122000000Y-93630000D02*
X123330000Y-93630000D01*
X123330000Y-93630000D02*
X123330000Y-94960000D01*
X123330000Y-96230000D02*
X123330000Y-103910000D01*
%TO.C,J1*%
X163060000Y-115410000D02*
X163060000Y-107590000D01*
X163060000Y-113810000D02*
X162140000Y-113810000D01*
X163060000Y-107590000D02*
X156940000Y-107590000D01*
X162140000Y-115410000D02*
X163060000Y-115410000D01*
X162140000Y-113810000D02*
X162140000Y-115410000D01*
X161860000Y-113810000D02*
X162140000Y-113810000D01*
X161860000Y-113810000D02*
X161860000Y-115025000D01*
X161800000Y-109850000D02*
X161800000Y-107590000D01*
X161300000Y-109850000D02*
X161300000Y-107590000D01*
X160500000Y-111950000D02*
X159500000Y-111950000D01*
X160500000Y-107590000D02*
X160500000Y-111950000D01*
X159500000Y-111950000D02*
X159500000Y-107590000D01*
X157860000Y-115410000D02*
X157860000Y-113810000D01*
X157860000Y-113810000D02*
X158140000Y-113810000D01*
X156940000Y-115410000D02*
X157860000Y-115410000D01*
X156940000Y-113810000D02*
X157860000Y-113810000D01*
X156940000Y-107590000D02*
X156940000Y-115410000D01*
X161300000Y-109850000D02*
X162300000Y-109850000D01*
X162300000Y-111450000D01*
X161300000Y-111450000D01*
X161300000Y-109850000D01*
X157700000Y-109850000D02*
X158700000Y-109850000D01*
X158700000Y-111450000D01*
X157700000Y-111450000D01*
X157700000Y-109850000D01*
%TD*%
M02*
