%TF.GenerationSoftware,KiCad,Pcbnew,10.0.1*%
%TF.CreationDate,2026-09-30T16:23:07+01:00*%
%TF.ProjectId,Temperature Monitor,54656d70-6572-4617-9475-7265204d6f6e,rev?*%
%TF.SameCoordinates,Original*%
%TF.FileFunction,Legend,Top*%
%TF.FilePolarity,Positive*%
%FSLAX46Y46*%
G04 Gerber Fmt 4.6, Leading zero omitted, Abs format (unit mm)*
G04 Created by KiCad (PCBNEW 10.0.1) date 2026-09-30 16:23:07*
%MOMM*%
%LPD*%
G01*
G04 APERTURE LIST*
%ADD10C,0.100000*%
%ADD11C,0.150000*%
%ADD12C,0.120000*%
%ADD13C,0.127000*%
%ADD14C,0.504000*%
G04 APERTURE END LIST*
D10*
X126350000Y-101100000D02*
X153650000Y-101100000D01*
X153650000Y-128900000D01*
X126350000Y-128900000D01*
X126350000Y-101100000D01*
X128250000Y-103250000D02*
X151750000Y-103250000D01*
X151750000Y-126750000D01*
X128250000Y-126750000D01*
X128250000Y-103250000D01*
D11*
X146034819Y-127733333D02*
X146749104Y-127733333D01*
X146749104Y-127733333D02*
X146891961Y-127780952D01*
X146891961Y-127780952D02*
X146987200Y-127876190D01*
X146987200Y-127876190D02*
X147034819Y-128019047D01*
X147034819Y-128019047D02*
X147034819Y-128114285D01*
X146034819Y-127352380D02*
X146034819Y-126733333D01*
X146034819Y-126733333D02*
X146415771Y-127066666D01*
X146415771Y-127066666D02*
X146415771Y-126923809D01*
X146415771Y-126923809D02*
X146463390Y-126828571D01*
X146463390Y-126828571D02*
X146511009Y-126780952D01*
X146511009Y-126780952D02*
X146606247Y-126733333D01*
X146606247Y-126733333D02*
X146844342Y-126733333D01*
X146844342Y-126733333D02*
X146939580Y-126780952D01*
X146939580Y-126780952D02*
X146987200Y-126828571D01*
X146987200Y-126828571D02*
X147034819Y-126923809D01*
X147034819Y-126923809D02*
X147034819Y-127209523D01*
X147034819Y-127209523D02*
X146987200Y-127304761D01*
X146987200Y-127304761D02*
X146939580Y-127352380D01*
X121023333Y-111824819D02*
X120690000Y-111348628D01*
X120451905Y-111824819D02*
X120451905Y-110824819D01*
X120451905Y-110824819D02*
X120832857Y-110824819D01*
X120832857Y-110824819D02*
X120928095Y-110872438D01*
X120928095Y-110872438D02*
X120975714Y-110920057D01*
X120975714Y-110920057D02*
X121023333Y-111015295D01*
X121023333Y-111015295D02*
X121023333Y-111158152D01*
X121023333Y-111158152D02*
X120975714Y-111253390D01*
X120975714Y-111253390D02*
X120928095Y-111301009D01*
X120928095Y-111301009D02*
X120832857Y-111348628D01*
X120832857Y-111348628D02*
X120451905Y-111348628D01*
X121404286Y-110920057D02*
X121451905Y-110872438D01*
X121451905Y-110872438D02*
X121547143Y-110824819D01*
X121547143Y-110824819D02*
X121785238Y-110824819D01*
X121785238Y-110824819D02*
X121880476Y-110872438D01*
X121880476Y-110872438D02*
X121928095Y-110920057D01*
X121928095Y-110920057D02*
X121975714Y-111015295D01*
X121975714Y-111015295D02*
X121975714Y-111110533D01*
X121975714Y-111110533D02*
X121928095Y-111253390D01*
X121928095Y-111253390D02*
X121356667Y-111824819D01*
X121356667Y-111824819D02*
X121975714Y-111824819D01*
X161166666Y-129004819D02*
X161166666Y-129719104D01*
X161166666Y-129719104D02*
X161119047Y-129861961D01*
X161119047Y-129861961D02*
X161023809Y-129957200D01*
X161023809Y-129957200D02*
X160880952Y-130004819D01*
X160880952Y-130004819D02*
X160785714Y-130004819D01*
X162166666Y-130004819D02*
X161595238Y-130004819D01*
X161880952Y-130004819D02*
X161880952Y-129004819D01*
X161880952Y-129004819D02*
X161785714Y-129147676D01*
X161785714Y-129147676D02*
X161690476Y-129242914D01*
X161690476Y-129242914D02*
X161595238Y-129290533D01*
X161966667Y-78357200D02*
X162109524Y-78404819D01*
X162109524Y-78404819D02*
X162347619Y-78404819D01*
X162347619Y-78404819D02*
X162442857Y-78357200D01*
X162442857Y-78357200D02*
X162490476Y-78309580D01*
X162490476Y-78309580D02*
X162538095Y-78214342D01*
X162538095Y-78214342D02*
X162538095Y-78119104D01*
X162538095Y-78119104D02*
X162490476Y-78023866D01*
X162490476Y-78023866D02*
X162442857Y-77976247D01*
X162442857Y-77976247D02*
X162347619Y-77928628D01*
X162347619Y-77928628D02*
X162157143Y-77881009D01*
X162157143Y-77881009D02*
X162061905Y-77833390D01*
X162061905Y-77833390D02*
X162014286Y-77785771D01*
X162014286Y-77785771D02*
X161966667Y-77690533D01*
X161966667Y-77690533D02*
X161966667Y-77595295D01*
X161966667Y-77595295D02*
X162014286Y-77500057D01*
X162014286Y-77500057D02*
X162061905Y-77452438D01*
X162061905Y-77452438D02*
X162157143Y-77404819D01*
X162157143Y-77404819D02*
X162395238Y-77404819D01*
X162395238Y-77404819D02*
X162538095Y-77452438D01*
X162871429Y-77404819D02*
X163109524Y-78404819D01*
X163109524Y-78404819D02*
X163300000Y-77690533D01*
X163300000Y-77690533D02*
X163490476Y-78404819D01*
X163490476Y-78404819D02*
X163728572Y-77404819D01*
X164061905Y-77500057D02*
X164109524Y-77452438D01*
X164109524Y-77452438D02*
X164204762Y-77404819D01*
X164204762Y-77404819D02*
X164442857Y-77404819D01*
X164442857Y-77404819D02*
X164538095Y-77452438D01*
X164538095Y-77452438D02*
X164585714Y-77500057D01*
X164585714Y-77500057D02*
X164633333Y-77595295D01*
X164633333Y-77595295D02*
X164633333Y-77690533D01*
X164633333Y-77690533D02*
X164585714Y-77833390D01*
X164585714Y-77833390D02*
X164014286Y-78404819D01*
X164014286Y-78404819D02*
X164633333Y-78404819D01*
X144523333Y-126324819D02*
X144190000Y-125848628D01*
X143951905Y-126324819D02*
X143951905Y-125324819D01*
X143951905Y-125324819D02*
X144332857Y-125324819D01*
X144332857Y-125324819D02*
X144428095Y-125372438D01*
X144428095Y-125372438D02*
X144475714Y-125420057D01*
X144475714Y-125420057D02*
X144523333Y-125515295D01*
X144523333Y-125515295D02*
X144523333Y-125658152D01*
X144523333Y-125658152D02*
X144475714Y-125753390D01*
X144475714Y-125753390D02*
X144428095Y-125801009D01*
X144428095Y-125801009D02*
X144332857Y-125848628D01*
X144332857Y-125848628D02*
X143951905Y-125848628D01*
X144856667Y-125324819D02*
X145475714Y-125324819D01*
X145475714Y-125324819D02*
X145142381Y-125705771D01*
X145142381Y-125705771D02*
X145285238Y-125705771D01*
X145285238Y-125705771D02*
X145380476Y-125753390D01*
X145380476Y-125753390D02*
X145428095Y-125801009D01*
X145428095Y-125801009D02*
X145475714Y-125896247D01*
X145475714Y-125896247D02*
X145475714Y-126134342D01*
X145475714Y-126134342D02*
X145428095Y-126229580D01*
X145428095Y-126229580D02*
X145380476Y-126277200D01*
X145380476Y-126277200D02*
X145285238Y-126324819D01*
X145285238Y-126324819D02*
X144999524Y-126324819D01*
X144999524Y-126324819D02*
X144904286Y-126277200D01*
X144904286Y-126277200D02*
X144856667Y-126229580D01*
X118666667Y-78107200D02*
X118809524Y-78154819D01*
X118809524Y-78154819D02*
X119047619Y-78154819D01*
X119047619Y-78154819D02*
X119142857Y-78107200D01*
X119142857Y-78107200D02*
X119190476Y-78059580D01*
X119190476Y-78059580D02*
X119238095Y-77964342D01*
X119238095Y-77964342D02*
X119238095Y-77869104D01*
X119238095Y-77869104D02*
X119190476Y-77773866D01*
X119190476Y-77773866D02*
X119142857Y-77726247D01*
X119142857Y-77726247D02*
X119047619Y-77678628D01*
X119047619Y-77678628D02*
X118857143Y-77631009D01*
X118857143Y-77631009D02*
X118761905Y-77583390D01*
X118761905Y-77583390D02*
X118714286Y-77535771D01*
X118714286Y-77535771D02*
X118666667Y-77440533D01*
X118666667Y-77440533D02*
X118666667Y-77345295D01*
X118666667Y-77345295D02*
X118714286Y-77250057D01*
X118714286Y-77250057D02*
X118761905Y-77202438D01*
X118761905Y-77202438D02*
X118857143Y-77154819D01*
X118857143Y-77154819D02*
X119095238Y-77154819D01*
X119095238Y-77154819D02*
X119238095Y-77202438D01*
X119571429Y-77154819D02*
X119809524Y-78154819D01*
X119809524Y-78154819D02*
X120000000Y-77440533D01*
X120000000Y-77440533D02*
X120190476Y-78154819D01*
X120190476Y-78154819D02*
X120428572Y-77154819D01*
X120714286Y-77154819D02*
X121333333Y-77154819D01*
X121333333Y-77154819D02*
X121000000Y-77535771D01*
X121000000Y-77535771D02*
X121142857Y-77535771D01*
X121142857Y-77535771D02*
X121238095Y-77583390D01*
X121238095Y-77583390D02*
X121285714Y-77631009D01*
X121285714Y-77631009D02*
X121333333Y-77726247D01*
X121333333Y-77726247D02*
X121333333Y-77964342D01*
X121333333Y-77964342D02*
X121285714Y-78059580D01*
X121285714Y-78059580D02*
X121238095Y-78107200D01*
X121238095Y-78107200D02*
X121142857Y-78154819D01*
X121142857Y-78154819D02*
X120857143Y-78154819D01*
X120857143Y-78154819D02*
X120761905Y-78107200D01*
X120761905Y-78107200D02*
X120714286Y-78059580D01*
X161966667Y-86857200D02*
X162109524Y-86904819D01*
X162109524Y-86904819D02*
X162347619Y-86904819D01*
X162347619Y-86904819D02*
X162442857Y-86857200D01*
X162442857Y-86857200D02*
X162490476Y-86809580D01*
X162490476Y-86809580D02*
X162538095Y-86714342D01*
X162538095Y-86714342D02*
X162538095Y-86619104D01*
X162538095Y-86619104D02*
X162490476Y-86523866D01*
X162490476Y-86523866D02*
X162442857Y-86476247D01*
X162442857Y-86476247D02*
X162347619Y-86428628D01*
X162347619Y-86428628D02*
X162157143Y-86381009D01*
X162157143Y-86381009D02*
X162061905Y-86333390D01*
X162061905Y-86333390D02*
X162014286Y-86285771D01*
X162014286Y-86285771D02*
X161966667Y-86190533D01*
X161966667Y-86190533D02*
X161966667Y-86095295D01*
X161966667Y-86095295D02*
X162014286Y-86000057D01*
X162014286Y-86000057D02*
X162061905Y-85952438D01*
X162061905Y-85952438D02*
X162157143Y-85904819D01*
X162157143Y-85904819D02*
X162395238Y-85904819D01*
X162395238Y-85904819D02*
X162538095Y-85952438D01*
X162871429Y-85904819D02*
X163109524Y-86904819D01*
X163109524Y-86904819D02*
X163300000Y-86190533D01*
X163300000Y-86190533D02*
X163490476Y-86904819D01*
X163490476Y-86904819D02*
X163728572Y-85904819D01*
X164633333Y-86904819D02*
X164061905Y-86904819D01*
X164347619Y-86904819D02*
X164347619Y-85904819D01*
X164347619Y-85904819D02*
X164252381Y-86047676D01*
X164252381Y-86047676D02*
X164157143Y-86142914D01*
X164157143Y-86142914D02*
X164061905Y-86190533D01*
X125666666Y-85684819D02*
X125666666Y-86399104D01*
X125666666Y-86399104D02*
X125619047Y-86541961D01*
X125619047Y-86541961D02*
X125523809Y-86637200D01*
X125523809Y-86637200D02*
X125380952Y-86684819D01*
X125380952Y-86684819D02*
X125285714Y-86684819D01*
X126095238Y-85780057D02*
X126142857Y-85732438D01*
X126142857Y-85732438D02*
X126238095Y-85684819D01*
X126238095Y-85684819D02*
X126476190Y-85684819D01*
X126476190Y-85684819D02*
X126571428Y-85732438D01*
X126571428Y-85732438D02*
X126619047Y-85780057D01*
X126619047Y-85780057D02*
X126666666Y-85875295D01*
X126666666Y-85875295D02*
X126666666Y-85970533D01*
X126666666Y-85970533D02*
X126619047Y-86113390D01*
X126619047Y-86113390D02*
X126047619Y-86684819D01*
X126047619Y-86684819D02*
X126666666Y-86684819D01*
X134743333Y-121584819D02*
X134410000Y-121108628D01*
X134171905Y-121584819D02*
X134171905Y-120584819D01*
X134171905Y-120584819D02*
X134552857Y-120584819D01*
X134552857Y-120584819D02*
X134648095Y-120632438D01*
X134648095Y-120632438D02*
X134695714Y-120680057D01*
X134695714Y-120680057D02*
X134743333Y-120775295D01*
X134743333Y-120775295D02*
X134743333Y-120918152D01*
X134743333Y-120918152D02*
X134695714Y-121013390D01*
X134695714Y-121013390D02*
X134648095Y-121061009D01*
X134648095Y-121061009D02*
X134552857Y-121108628D01*
X134552857Y-121108628D02*
X134171905Y-121108628D01*
X135695714Y-121584819D02*
X135124286Y-121584819D01*
X135410000Y-121584819D02*
X135410000Y-120584819D01*
X135410000Y-120584819D02*
X135314762Y-120727676D01*
X135314762Y-120727676D02*
X135219524Y-120822914D01*
X135219524Y-120822914D02*
X135124286Y-120870533D01*
%TO.C,J3*%
D12*
X134860000Y-126070000D02*
X134860000Y-128730000D01*
X142540000Y-126070000D02*
X134860000Y-126070000D01*
X142540000Y-126070000D02*
X142540000Y-128730000D01*
X142540000Y-128730000D02*
X134860000Y-128730000D01*
X145140000Y-127400000D02*
X145140000Y-128730000D01*
X145140000Y-128730000D02*
X143810000Y-128730000D01*
%TO.C,R2*%
X117920000Y-107630000D02*
X117920000Y-107960000D01*
X117920000Y-110370000D02*
X117920000Y-110040000D01*
X124460000Y-107630000D02*
X117920000Y-107630000D01*
X124460000Y-107960000D02*
X124460000Y-107630000D01*
X124460000Y-110040000D02*
X124460000Y-110370000D01*
X124460000Y-110370000D02*
X117920000Y-110370000D01*
%TO.C,J1*%
X158440000Y-120640000D02*
X158440000Y-128460000D01*
X158440000Y-126860000D02*
X159360000Y-126860000D01*
X158440000Y-128460000D02*
X159360000Y-128460000D01*
X159360000Y-126860000D02*
X159640000Y-126860000D01*
X159360000Y-128460000D02*
X159360000Y-126860000D01*
X161000000Y-125000000D02*
X161000000Y-120640000D01*
X162000000Y-120640000D02*
X162000000Y-125000000D01*
X162000000Y-125000000D02*
X161000000Y-125000000D01*
X162800000Y-122900000D02*
X162800000Y-120640000D01*
X163300000Y-122900000D02*
X163300000Y-120640000D01*
X163360000Y-126860000D02*
X163360000Y-128075000D01*
X163360000Y-126860000D02*
X163640000Y-126860000D01*
X163640000Y-126860000D02*
X163640000Y-128460000D01*
X163640000Y-128460000D02*
X164560000Y-128460000D01*
X164560000Y-120640000D02*
X158440000Y-120640000D01*
X164560000Y-126860000D02*
X163640000Y-126860000D01*
X164560000Y-128460000D02*
X164560000Y-120640000D01*
X159200000Y-122900000D02*
X160200000Y-122900000D01*
X160200000Y-124500000D01*
X159200000Y-124500000D01*
X159200000Y-122900000D01*
X162800000Y-122900000D02*
X163800000Y-122900000D01*
X163800000Y-124500000D01*
X162800000Y-124500000D01*
X162800000Y-122900000D01*
%TO.C,SW2*%
X160180000Y-83350000D02*
X160180000Y-81150000D01*
X160800000Y-79130000D02*
X165800000Y-79130000D01*
X160800000Y-85370000D02*
X165800000Y-85370000D01*
X166420000Y-81150000D02*
X166420000Y-83350000D01*
X165050000Y-82250000D02*
G75*
G02*
X161550000Y-82250000I-1750000J0D01*
G01*
X161550000Y-82250000D02*
G75*
G02*
X165050000Y-82250000I1750000J0D01*
G01*
%TO.C,R3*%
X141420000Y-122130000D02*
X141420000Y-122460000D01*
X141420000Y-124870000D02*
X141420000Y-124540000D01*
X147960000Y-122130000D02*
X141420000Y-122130000D01*
X147960000Y-122460000D02*
X147960000Y-122130000D01*
X147960000Y-124540000D02*
X147960000Y-124870000D01*
X147960000Y-124870000D02*
X141420000Y-124870000D01*
%TO.C,SW3*%
X116880000Y-83100000D02*
X116880000Y-80900000D01*
X117500000Y-78880000D02*
X122500000Y-78880000D01*
X117500000Y-85120000D02*
X122500000Y-85120000D01*
X123120000Y-80900000D02*
X123120000Y-83100000D01*
X121750000Y-82000000D02*
G75*
G02*
X118250000Y-82000000I-1750000J0D01*
G01*
X118250000Y-82000000D02*
G75*
G02*
X121750000Y-82000000I1750000J0D01*
G01*
%TO.C,U2*%
D10*
X131100000Y-119981300D02*
X131100000Y-102836300D01*
X133005000Y-121886300D02*
X146975000Y-121886300D01*
D13*
X135495000Y-100931300D02*
X135498728Y-99921028D01*
X135998728Y-99421300D02*
X143994000Y-99421300D01*
X144494000Y-99921300D02*
X144494000Y-100931300D01*
D10*
X146975000Y-100931300D02*
X133005000Y-100931300D01*
X148880000Y-119981300D02*
X148880000Y-102836300D01*
X131100000Y-102832300D02*
G75*
G02*
X133005000Y-100927300I1905001J-1D01*
G01*
X133005000Y-121886300D02*
G75*
G02*
X131100000Y-119981300I0J1905000D01*
G01*
D13*
X135498728Y-99921028D02*
G75*
G02*
X135998728Y-99421298I500022J-292D01*
G01*
X143994000Y-99421300D02*
G75*
G02*
X144494000Y-99921300I0J-500000D01*
G01*
D10*
X146975000Y-100931300D02*
G75*
G02*
X148880000Y-102836300I0J-1905000D01*
G01*
X148880000Y-119981300D02*
G75*
G02*
X146975000Y-121886300I-1905000J0D01*
G01*
D14*
X131142000Y-101347300D02*
G75*
G02*
X130638000Y-101347300I-252000J0D01*
G01*
X130638000Y-101347300D02*
G75*
G02*
X131142000Y-101347300I252000J0D01*
G01*
X132416000Y-102064300D02*
G75*
G02*
X131912000Y-102064300I-252000J0D01*
G01*
X131912000Y-102064300D02*
G75*
G02*
X132416000Y-102064300I252000J0D01*
G01*
%TO.C,SW1*%
D12*
X160180000Y-91850000D02*
X160180000Y-89650000D01*
X160800000Y-87630000D02*
X165800000Y-87630000D01*
X160800000Y-93870000D02*
X165800000Y-93870000D01*
X166420000Y-89650000D02*
X166420000Y-91850000D01*
X165050000Y-90750000D02*
G75*
G02*
X161550000Y-90750000I-1750000J0D01*
G01*
X161550000Y-90750000D02*
G75*
G02*
X165050000Y-90750000I1750000J0D01*
G01*
%TO.C,J2*%
X124670000Y-90270000D02*
X124670000Y-97950000D01*
X124670000Y-90270000D02*
X127330000Y-90270000D01*
X124670000Y-97950000D02*
X127330000Y-97950000D01*
X126000000Y-87670000D02*
X127330000Y-87670000D01*
X127330000Y-87670000D02*
X127330000Y-89000000D01*
X127330000Y-90270000D02*
X127330000Y-97950000D01*
%TO.C,R1*%
X131640000Y-122130000D02*
X138180000Y-122130000D01*
X131640000Y-122460000D02*
X131640000Y-122130000D01*
X131640000Y-124540000D02*
X131640000Y-124870000D01*
X131640000Y-124870000D02*
X138180000Y-124870000D01*
X138180000Y-122130000D02*
X138180000Y-122460000D01*
X138180000Y-124870000D02*
X138180000Y-124540000D01*
%TD*%
M02*
